# 3ds Max Wavefront OBJ Exporter v0.97b - (c)2007 guruware
# File Created: 17.04.2019 08:39:40

mtllib Sheep7.mtl

#
# object Sheep_ver2
#

v  -0.1117 -0.4386 -0.3593
v  -0.0882 -0.4929 -0.3733
v  -0.0977 -0.4386 -0.3833
v  -0.1075 -0.4929 -0.3350
v  -0.1073 -0.4929 -0.4091
v  -0.1108 -0.4386 -0.4058
v  -0.1248 -0.4386 -0.3818
v  -0.1266 -0.4929 -0.3709
v  -0.1139 -0.3756 -0.3559
v  -0.0933 -0.3724 -0.3803
v  -0.1129 -0.3694 -0.4004
v  -0.1334 -0.3727 -0.3781
v  -0.0903 -0.2850 -0.4252
v  -0.1393 -0.2511 -0.3172
v  -0.1357 -0.2503 -0.4476
v  -0.1916 -0.2511 -0.3728
v  -0.0000 -0.2804 -0.2105
v  -0.1261 -0.2105 -0.2325
v  -0.0000 -0.2506 -0.4344
v  -0.1346 -0.1194 -0.5711
v  -0.2256 -0.1194 -0.3767
v  -0.2418 -0.0045 -0.3755
v  -0.1340 0.0120 -0.5841
v  -0.2348 -0.0907 -0.2107
v  -0.1348 0.1107 -0.5431
v  -0.2199 0.1107 -0.3771
v  -0.2273 0.1444 -0.2104
v  -0.0445 0.1588 -0.5412
v  -0.0000 0.2408 -0.4053
v  -0.0000 0.1818 -0.5413
v  -0.0000 0.2705 -0.2284
v  -0.1280 -0.2338 -0.0966
v  -0.0000 -0.3016 -0.0783
v  -0.2397 -0.0825 -0.0435
v  -0.2207 0.1478 -0.0099
v  -0.0000 0.2850 -0.0214
v  -0.0000 0.0120 -0.6285
v  -0.0000 -0.0926 -0.5917
v  -0.0283 0.0436 -0.6573
v  -0.0000 0.0642 -0.6648
v  -0.0000 -0.0680 -0.6570
v  -0.1124 -0.4420 0.1309
v  -0.0869 -0.4992 0.1137
v  -0.0969 -0.4420 0.1064
v  -0.1078 -0.4967 0.1492
v  -0.1075 -0.4958 0.0751
v  -0.1114 -0.4420 0.0835
v  -0.1284 -0.4994 0.1163
v  -0.1269 -0.4420 0.1080
v  -0.1148 -0.3749 0.1207
v  -0.0921 -0.3713 0.0971
v  -0.1137 -0.3680 0.0813
v  -0.1363 -0.3716 0.0992
v  -0.1268 -0.2270 0.2296
v  -0.0688 -0.2837 0.1492
v  -0.1196 -0.2125 0.0973
v  -0.1968 -0.2174 0.1704
v  -0.1660 0.0170 0.4030
v  -0.0000 -0.1082 0.3717
v  -0.0000 0.0247 0.4810
v  -0.1417 -0.1346 0.2952
v  -0.2312 -0.0045 0.1055
v  -0.2114 -0.1260 0.1995
v  -0.2317 0.0014 0.2400
v  -0.1410 0.1377 0.4547
v  -0.0000 0.1491 0.5335
v  -0.1674 0.1502 0.1932
v  -0.2067 0.1477 0.3107
v  -0.1001 0.2228 0.4806
v  -0.0000 0.1839 0.5371
v  -0.0000 0.2143 0.5259
v  -0.0820 0.2437 0.4826
v  -0.0000 -0.1897 0.2808
v  -0.0000 -0.2311 0.1497
v  -0.0000 -0.2771 0.0575
v  -0.1108 0.4005 0.3713
v  -0.1313 0.3867 0.4010
v  -0.0000 0.2705 0.1336
v  -0.0358 0.2919 0.6394
v  -0.0287 0.2354 0.6088
v  -0.0866 0.4005 0.4492
v  -0.0000 0.2140 0.6185
v  -0.1195 0.4334 0.4161
v  -0.0000 0.4713 0.3956
v  -0.0000 0.4994 0.3798
v  -0.0000 0.4289 0.2667
v  -0.0000 0.3163 0.6460
v  -0.1685 0.4420 0.4074
v  -0.2184 0.4262 0.4354
v  -0.1822 0.3822 0.4187
v  0.0882 -0.4929 -0.3733
v  0.1117 -0.4386 -0.3593
v  0.0977 -0.4386 -0.3833
v  0.1075 -0.4929 -0.3350
v  0.1073 -0.4929 -0.4091
v  0.1108 -0.4386 -0.4058
v  0.1248 -0.4386 -0.3818
v  0.1266 -0.4929 -0.3709
v  0.1139 -0.3756 -0.3559
v  0.0933 -0.3724 -0.3803
v  0.1129 -0.3694 -0.4004
v  0.1334 -0.3727 -0.3781
v  0.0903 -0.2850 -0.4252
v  0.1393 -0.2511 -0.3172
v  0.1357 -0.2503 -0.4476
v  0.1916 -0.2511 -0.3728
v  0.1261 -0.2105 -0.2325
v  0.1346 -0.1194 -0.5711
v  0.2256 -0.1194 -0.3767
v  0.2418 -0.0045 -0.3755
v  0.1340 0.0120 -0.5841
v  0.2348 -0.0907 -0.2107
v  0.1348 0.1107 -0.5431
v  0.2199 0.1107 -0.3771
v  0.2273 0.1444 -0.2104
v  0.0445 0.1588 -0.5412
v  0.1280 -0.2338 -0.0966
v  0.2397 -0.0825 -0.0435
v  0.2207 0.1478 -0.0099
v  0.0283 0.0436 -0.6573
v  0.0869 -0.4992 0.1137
v  0.1124 -0.4420 0.1309
v  0.0969 -0.4420 0.1064
v  0.1078 -0.4967 0.1492
v  0.1075 -0.4958 0.0751
v  0.1114 -0.4420 0.0835
v  0.1269 -0.4420 0.1080
v  0.1284 -0.4994 0.1163
v  0.1148 -0.3749 0.1207
v  0.0921 -0.3713 0.0971
v  0.1137 -0.3680 0.0813
v  0.1363 -0.3716 0.0992
v  0.1268 -0.2270 0.2296
v  0.0688 -0.2837 0.1492
v  0.1196 -0.2125 0.0973
v  0.1968 -0.2174 0.1704
v  0.1660 0.0170 0.4030
v  0.1417 -0.1346 0.2952
v  0.2312 -0.0045 0.1055
v  0.2114 -0.1260 0.1995
v  0.2317 0.0014 0.2400
v  0.1410 0.1377 0.4547
v  0.1674 0.1502 0.1932
v  0.2067 0.1477 0.3107
v  0.1001 0.2228 0.4806
v  0.0820 0.2437 0.4826
v  0.1108 0.4005 0.3713
v  0.1313 0.3867 0.4010
v  0.0358 0.2919 0.6394
v  0.0866 0.4005 0.4492
v  0.0287 0.2354 0.6088
v  0.1195 0.4334 0.4161
v  0.1685 0.4420 0.4074
v  0.1822 0.3822 0.4187
v  0.2184 0.4262 0.4354
v  -0.0000 0.2800 0.6648
v  -0.0000 0.2354 0.6243
# 157 vertices

vn -0.0135 0.1384 0.9903
vn 0.8385 -0.5436 0.0369
vn 0.9947 0.0888 -0.0513
vn 0.0320 -0.3988 0.9165
vn 0.0237 -0.5327 -0.8460
vn -0.0166 0.0129 -0.9998
vn -0.9990 -0.0158 -0.0428
vn -0.8022 -0.5947 0.0529
vn 0.1353 -0.1549 0.9786
vn 0.9979 -0.0449 -0.0469
vn -0.1260 -0.2755 -0.9530
vn -0.9598 -0.2805 0.0110
vn 0.4219 -0.7312 -0.5360
vn -0.4871 -0.6801 0.5479
vn -0.4292 -0.5208 -0.7380
vn -0.9183 -0.3950 0.0260
vn 0.0000 -1.0000 -0.0030
vn -0.7107 -0.6859 0.1566
vn 0.0000 -0.8889 -0.4580
vn -0.4978 -0.3979 -0.7707
vn -0.9299 -0.3335 -0.1551
vn -0.9752 -0.0401 -0.2176
vn -0.5972 0.0908 -0.7969
vn -0.9529 -0.3032 -0.0013
vn -0.5980 0.5234 -0.6070
vn -0.8365 0.4921 -0.2411
vn -0.8416 0.5375 -0.0531
vn -0.4876 0.6899 -0.5351
vn 0.0000 0.9639 -0.2663
vn 0.0000 0.8597 -0.5107
vn 0.0000 0.9934 -0.1151
vn -0.6412 -0.7672 0.0155
vn 0.0000 -1.0000 0.0042
vn -0.9510 -0.2965 0.0875
vn -0.8480 0.5263 0.0620
vn -0.0000 0.9991 0.0434
vn -0.0000 -0.6301 -0.7765
vn 0.0000 -0.4381 -0.8989
vn -0.8557 -0.0373 -0.5162
vn -0.0000 0.4630 -0.8864
vn -0.0000 -0.9955 -0.0944
vn -0.0138 0.1944 0.9808
vn 0.8306 -0.5558 0.0348
vn 0.9940 0.1089 -0.0078
vn 0.0364 -0.4215 0.9061
vn 0.0286 -0.4789 -0.8774
vn -0.0182 -0.0325 -0.9993
vn -0.7893 -0.6119 0.0515
vn -1.0000 -0.0028 0.0026
vn -0.0159 -0.3471 0.9377
vn 0.9849 -0.1036 -0.1384
vn 0.0270 0.0144 -0.9995
vn -0.9690 -0.1836 -0.1652
vn -0.2795 -0.6756 0.6822
vn 0.5930 -0.7823 0.1908
vn -0.7142 -0.5779 -0.3949
vn -0.9606 -0.2694 -0.0687
vn -0.6870 -0.3256 0.6496
vn 0.0000 -0.6439 0.7651
vn -0.0000 -0.4733 0.8809
vn -0.5342 -0.5406 0.6499
vn -0.9980 -0.0624 0.0040
vn -0.9293 -0.3548 0.1025
vn -0.9912 -0.0669 0.1141
vn -0.7162 -0.0747 0.6939
vn 0.0000 -0.1888 0.9820
vn -0.8450 0.5106 -0.1591
vn -0.9678 0.2269 0.1089
vn -0.6455 0.1268 0.7532
vn 0.0000 0.0899 0.9960
vn -0.0000 -0.5362 0.8441
vn -0.6878 0.0465 0.7244
vn 0.0000 -0.7571 0.6533
vn 0.0000 -0.9743 0.2251
vn 0.0000 -0.9993 0.0375
vn -0.6251 0.5188 -0.5831
vn -0.9909 0.0228 0.1327
vn -0.0000 0.9491 -0.3150
vn -0.7301 0.1655 0.6630
vn -0.7216 -0.5493 0.4214
vn -0.4968 0.4734 0.7274
vn -0.0000 -0.8139 0.5810
vn -0.3357 0.8206 0.4626
vn 0.0000 0.6708 0.7416
vn 0.0000 0.9991 0.0419
vn 0.0000 0.7323 -0.6809
vn 0.0000 0.7108 0.7034
vn -0.4475 0.8925 0.0564
vn -0.0891 -0.9475 0.3070
vn -0.5114 -0.8023 0.3079
vn -0.8385 -0.5436 0.0369
vn 0.0135 0.1384 0.9903
vn -0.9947 0.0888 -0.0513
vn -0.0320 -0.3988 0.9165
vn -0.0237 -0.5327 -0.8460
vn 0.0166 0.0129 -0.9998
vn 0.9990 -0.0158 -0.0428
vn 0.8022 -0.5947 0.0529
vn -0.1353 -0.1549 0.9786
vn -0.9979 -0.0449 -0.0469
vn 0.1260 -0.2755 -0.9530
vn 0.9598 -0.2805 0.0110
vn -0.4219 -0.7312 -0.5360
vn 0.4871 -0.6801 0.5479
vn 0.4292 -0.5208 -0.7380
vn 0.9183 -0.3950 0.0260
vn 0.7107 -0.6859 0.1566
vn 0.4978 -0.3979 -0.7707
vn 0.9299 -0.3335 -0.1551
vn 0.9752 -0.0401 -0.2176
vn 0.5972 0.0908 -0.7969
vn 0.9529 -0.3032 -0.0013
vn 0.5980 0.5234 -0.6070
vn 0.8365 0.4921 -0.2411
vn 0.8416 0.5375 -0.0531
vn 0.4876 0.6899 -0.5351
vn 0.6412 -0.7672 0.0155
vn 0.9510 -0.2965 0.0875
vn 0.8480 0.5263 0.0620
vn 0.8557 -0.0373 -0.5162
vn -0.8306 -0.5558 0.0348
vn 0.0138 0.1944 0.9808
vn -0.9940 0.1089 -0.0078
vn -0.0364 -0.4215 0.9061
vn -0.0286 -0.4789 -0.8774
vn 0.0182 -0.0325 -0.9993
vn 1.0000 -0.0028 0.0026
vn 0.7893 -0.6119 0.0515
vn 0.0159 -0.3471 0.9377
vn -0.9849 -0.1036 -0.1384
vn -0.0270 0.0144 -0.9995
vn 0.9690 -0.1836 -0.1652
vn 0.2795 -0.6756 0.6822
vn -0.5930 -0.7823 0.1908
vn 0.7142 -0.5779 -0.3949
vn 0.9606 -0.2694 -0.0687
vn 0.6870 -0.3256 0.6496
vn 0.5342 -0.5406 0.6499
vn 0.9980 -0.0624 0.0040
vn 0.9293 -0.3548 0.1025
vn 0.9912 -0.0669 0.1141
vn 0.7162 -0.0747 0.6939
vn 0.8450 0.5106 -0.1591
vn 0.9678 0.2269 0.1089
vn 0.6455 0.1268 0.7532
vn 0.6878 0.0465 0.7244
vn 0.6251 0.5188 -0.5831
vn 0.9909 0.0228 0.1327
vn 0.7301 0.1655 0.6630
vn 0.4968 0.4734 0.7274
vn 0.7216 -0.5493 0.4214
vn 0.3357 0.8206 0.4626
vn 0.4475 0.8925 0.0564
vn 0.5114 -0.8023 0.3079
vn 0.0891 -0.9475 0.3070
vn 0.0000 -0.1502 0.9887
vn -0.0000 -0.4594 0.8883
# 157 vertex normals

vt 0.2893 0.5020 0.0000
vt 0.2804 0.5279 0.0000
vt 0.5119 0.5046 0.0000
vt 0.2878 0.5258 0.0000
vt 0.2826 0.5297 0.0000
vt 0.2866 0.4357 0.0000
# 6 texture coords

g Sheep_ver2
usemtl Material__26
s off
f 1/1/1 2/1/2 3/1/3 
f 2/1/2 1/1/1 4/1/4 
f 3/1/3 5/1/5 6/1/6 
f 5/1/5 3/1/3 2/1/2 
f 6/1/6 5/1/5 7/1/7 
f 5/1/5 8/1/8 7/1/7 
f 7/1/7 8/1/8 1/1/1 
f 8/1/8 4/1/4 1/1/1 
f 9/2/9 3/2/3 10/2/10 
f 3/2/3 9/2/9 1/2/1 
f 10/2/10 6/2/6 11/2/11 
f 6/2/6 10/2/10 3/2/3 
f 11/2/11 6/2/6 12/2/12 
f 12/2/12 6/2/6 7/2/7 
f 12/2/12 7/2/7 9/2/9 
f 9/2/9 7/2/7 1/2/1 
f 13/2/13 14/2/14 9/2/9 
f 13/2/13 9/2/9 10/2/10 
f 13/2/13 11/2/11 15/2/15 
f 11/2/11 13/2/13 10/2/10 
f 15/2/15 11/2/11 16/2/16 
f 16/2/16 11/2/11 12/2/12 
f 16/2/16 9/2/9 14/2/14 
f 9/2/9 16/2/16 12/2/12 
f 14/3/14 17/3/17 18/3/18 
f 15/3/15 19/3/19 13/3/13 
f 19/3/19 15/3/15 20/3/20 
f 21/3/21 20/3/20 15/3/15 
f 21/3/21 15/3/15 16/3/16 
f 21/3/21 14/3/14 18/3/18 
f 14/3/14 21/3/21 16/3/16 
f 22/3/22 23/3/23 20/3/20 
f 22/3/22 20/3/20 21/3/21 
f 24/3/24 21/3/21 18/3/18 
f 24/3/24 22/3/22 21/3/21 
f 25/3/25 22/3/22 26/3/26 
f 22/3/22 25/3/25 23/3/23 
f 27/3/27 22/3/22 24/3/24 
f 27/3/27 26/3/26 22/3/22 
f 28/3/28 29/3/29 30/3/30 
f 29/3/29 25/3/25 26/3/26 
f 25/3/25 29/3/29 28/3/28 
f 29/3/29 26/3/26 31/3/31 
f 26/3/26 27/3/27 31/3/31 
f 32/3/32 17/3/17 33/3/33 
f 17/3/17 32/3/32 18/3/18 
f 34/3/34 24/3/24 32/3/32 
f 24/3/24 18/3/18 32/3/32 
f 27/3/27 34/3/34 35/3/35 
f 34/3/34 27/3/27 24/3/24 
f 31/3/31 27/3/27 36/3/36 
f 27/3/27 35/3/35 36/3/36 
f 28/3/28 37/3/37 25/3/25 
f 25/3/25 37/3/37 23/3/23 
f 23/3/23 38/3/38 20/3/20 
f 38/3/38 23/3/23 37/3/37 
f 28/3/28 39/3/39 37/3/37 
f 28/3/28 40/3/40 39/3/39 
f 40/3/40 28/3/28 30/3/30 
f 37/3/37 39/3/39 41/3/41 
f 39/3/39 40/3/40 41/3/41 
f 42/1/42 43/1/43 44/1/44 
f 43/1/43 42/1/42 45/1/45 
f 44/1/44 46/1/46 47/1/47 
f 46/1/46 44/1/44 43/1/43 
f 46/1/46 48/1/48 49/1/49 
f 46/1/46 49/1/49 47/1/47 
f 49/1/49 48/1/48 42/1/42 
f 48/1/48 45/1/45 42/1/42 
f 50/2/50 44/2/44 51/2/51 
f 44/2/44 50/2/50 42/2/42 
f 51/2/51 47/2/47 52/2/52 
f 47/2/47 51/2/51 44/2/44 
f 52/2/52 47/2/47 53/2/53 
f 47/2/47 49/2/49 53/2/53 
f 53/2/53 49/2/49 50/2/50 
f 49/2/49 42/2/42 50/2/50 
f 54/2/54 50/2/50 55/2/55 
f 55/2/55 50/2/50 51/2/51 
f 52/2/52 55/2/55 51/2/51 
f 55/2/55 52/2/52 56/2/56 
f 56/2/56 53/2/53 57/2/57 
f 53/2/53 56/2/56 52/2/52 
f 57/2/57 53/2/53 54/2/54 
f 54/2/54 53/2/53 50/2/50 
f 58/3/58 59/3/59 60/3/60 
f 59/3/59 58/3/58 61/3/61 
f 62/3/62 63/3/63 64/3/64 
f 63/3/63 62/3/62 56/3/56 
f 58/3/58 64/3/64 61/3/61 
f 61/3/61 64/3/64 63/3/63 
f 65/3/65 60/3/60 66/3/66 
f 60/3/60 65/3/65 58/3/58 
f 67/3/67 64/3/64 68/3/68 
f 64/3/64 67/3/67 62/3/62 
f 68/3/68 58/3/58 65/3/65 
f 58/3/58 68/3/68 64/3/64 
f 69/3/69 70/3/70 71/3/71 
f 71/3/71 72/3/72 69/3/69 
f 55/3/55 73/3/73 54/3/54 
f 73/3/73 55/3/55 74/3/74 
f 74/3/74 55/3/55 75/3/75 
f 55/3/55 56/3/56 75/3/75 
f 19/3/19 20/3/20 38/3/38 
f 5/1/5 2/1/2 8/1/8 
f 8/1/8 2/1/2 4/1/4 
f 46/1/46 43/1/43 48/1/48 
f 48/1/48 43/1/43 45/1/45 
f 76/3/76 68/3/68 77/3/77 
f 68/3/68 76/3/76 67/3/67 
f 19/3/19 14/3/14 13/3/13 
f 14/3/14 19/3/19 17/3/17 
f 56/3/56 57/3/57 63/3/63 
f 54/3/54 61/3/61 63/3/63 
f 63/3/63 57/3/57 54/3/54 
f 54/3/54 73/3/73 61/3/61 
f 59/3/59 61/3/61 73/3/73 
f 34/3/34 56/3/56 62/3/62 
f 56/3/56 34/3/34 32/3/32 
f 35/3/35 62/3/62 67/3/67 
f 62/3/62 35/3/35 34/3/34 
f 36/3/36 35/3/35 78/3/78 
f 35/3/35 67/3/67 78/3/78 
f 79/4/79 72/4/72 80/4/80 
f 72/4/72 79/4/79 81/4/81 
f 80/4/80 71/4/71 82/4/82 
f 71/4/71 80/4/80 72/4/72 
f 81/3/81 69/3/69 72/3/72 
f 69/3/69 81/3/81 83/3/83 
f 83/3/83 84/3/84 85/3/85 
f 84/3/84 83/3/83 81/3/81 
f 76/3/76 85/3/85 86/3/86 
f 85/3/85 76/3/76 83/3/83 
f 67/3/67 76/3/76 78/3/78 
f 76/3/76 86/3/86 78/3/78 
f 75/3/75 32/3/32 33/3/33 
f 32/3/32 75/3/75 56/3/56 
f 81/4/81 87/4/87 84/4/84 
f 87/4/87 81/4/81 79/4/79 
f 88/5/88 89/5/89 90/5/90 
f 83/3/83 77/3/77 69/3/69 
f 68/3/68 69/3/69 77/3/77 
f 69/3/69 68/3/68 65/3/65 
f 70/3/70 69/3/69 66/3/66 
f 69/3/69 65/3/65 66/3/66 
f 88/5/88 77/5/77 83/5/83 
f 77/5/77 88/5/88 90/5/90 
f 83/5/83 76/5/76 88/5/88 
f 77/5/77 89/5/89 76/5/76 
f 89/5/89 77/5/77 90/5/90 
f 76/5/76 89/5/89 88/5/88 
f 91/1/91 92/1/92 93/1/93 
f 92/1/92 91/1/91 94/1/94 
f 95/1/95 93/1/93 96/1/96 
f 93/1/93 95/1/95 91/1/91 
f 97/1/97 95/1/95 96/1/96 
f 95/1/95 97/1/97 98/1/98 
f 92/1/92 98/1/98 97/1/97 
f 98/1/98 92/1/92 94/1/94 
f 99/2/99 93/2/93 92/2/92 
f 93/2/93 99/2/99 100/2/100 
f 100/2/100 96/2/96 93/2/93 
f 96/2/96 100/2/100 101/2/101 
f 96/2/96 102/2/102 97/2/97 
f 102/2/102 96/2/96 101/2/101 
f 99/2/99 97/2/97 102/2/102 
f 97/2/97 99/2/99 92/2/92 
f 103/2/103 99/2/99 104/2/104 
f 99/2/99 103/2/103 100/2/100 
f 103/2/103 101/2/101 100/2/100 
f 101/2/101 103/2/103 105/2/105 
f 106/2/106 101/2/101 105/2/105 
f 101/2/101 106/2/106 102/2/102 
f 106/2/106 99/2/99 102/2/102 
f 99/2/99 106/2/106 104/2/104 
f 104/3/104 107/3/107 17/3/17 
f 19/3/19 105/3/105 103/3/103 
f 105/3/105 19/3/19 108/3/108 
f 108/3/108 109/3/109 105/3/105 
f 105/3/105 109/3/109 106/3/106 
f 109/3/109 104/3/104 106/3/106 
f 104/3/104 109/3/109 107/3/107 
f 110/3/110 108/3/108 111/3/111 
f 108/3/108 110/3/110 109/3/109 
f 112/3/112 109/3/109 110/3/110 
f 112/3/112 107/3/107 109/3/109 
f 110/3/110 113/3/113 114/3/114 
f 113/3/113 110/3/110 111/3/111 
f 115/3/115 110/3/110 114/3/114 
f 115/3/115 112/3/112 110/3/110 
f 29/3/29 116/3/116 30/3/30 
f 113/3/113 29/3/29 114/3/114 
f 29/3/29 113/3/113 116/3/116 
f 29/3/29 31/3/31 114/3/114 
f 114/3/114 31/3/31 115/3/115 
f 33/3/33 17/3/17 117/3/117 
f 117/3/117 17/3/17 107/3/107 
f 118/3/118 117/3/117 112/3/112 
f 112/3/112 117/3/117 107/3/107 
f 115/3/115 118/3/118 112/3/112 
f 118/3/118 115/3/115 119/3/119 
f 31/3/31 36/3/36 115/3/115 
f 115/3/115 36/3/36 119/3/119 
f 37/3/37 113/3/113 111/3/111 
f 113/3/113 37/3/37 116/3/116 
f 111/3/111 38/3/38 37/3/37 
f 38/3/38 111/3/111 108/3/108 
f 116/3/116 37/3/37 120/3/120 
f 116/3/116 40/3/40 30/3/30 
f 40/3/40 116/3/116 120/3/120 
f 37/3/37 41/3/41 120/3/120 
f 120/3/120 41/3/41 40/3/40 
f 121/1/121 122/1/122 123/1/123 
f 122/1/122 121/1/121 124/1/124 
f 125/1/125 123/1/123 126/1/126 
f 123/1/123 125/1/125 121/1/121 
f 125/1/125 127/1/127 128/1/128 
f 127/1/127 125/1/125 126/1/126 
f 122/1/122 128/1/128 127/1/127 
f 128/1/128 122/1/122 124/1/124 
f 123/2/123 129/2/129 130/2/130 
f 129/2/129 123/2/123 122/2/122 
f 126/2/126 130/2/130 131/2/131 
f 130/2/130 126/2/126 123/2/123 
f 132/2/132 126/2/126 131/2/131 
f 126/2/126 132/2/132 127/2/127 
f 129/2/129 127/2/127 132/2/132 
f 127/2/127 129/2/129 122/2/122 
f 129/2/129 133/2/133 134/2/134 
f 129/2/129 134/2/134 130/2/130 
f 134/2/134 131/2/131 130/2/130 
f 131/2/131 134/2/134 135/2/135 
f 135/2/135 132/2/132 131/2/131 
f 132/2/132 135/2/135 136/2/136 
f 133/2/133 132/2/132 136/2/136 
f 132/2/132 133/2/133 129/2/129 
f 137/3/137 60/3/60 59/3/59 
f 137/3/137 59/3/59 138/3/138 
f 139/3/139 140/3/140 135/3/135 
f 140/3/140 139/3/139 141/3/141 
f 137/3/137 138/3/138 141/3/141 
f 138/3/138 140/3/140 141/3/141 
f 66/3/66 60/3/60 142/3/142 
f 142/3/142 60/3/60 137/3/137 
f 141/3/141 143/3/143 144/3/144 
f 143/3/143 141/3/141 139/3/139 
f 137/3/137 144/3/144 142/3/142 
f 144/3/144 137/3/137 141/3/141 
f 70/3/70 145/3/145 71/3/71 
f 71/3/71 145/3/145 146/3/146 
f 133/3/133 73/3/73 134/3/134 
f 73/3/73 74/3/74 134/3/134 
f 134/3/134 74/3/74 75/3/75 
f 75/3/75 135/3/135 134/3/134 
f 19/3/19 38/3/38 108/3/108 
f 95/1/95 98/1/98 91/1/91 
f 98/1/98 94/1/94 91/1/91 
f 125/1/125 128/1/128 121/1/121 
f 121/1/121 128/1/128 124/1/124 
f 143/3/143 147/3/147 144/3/144 
f 148/3/148 144/3/144 147/3/147 
f 19/3/19 104/3/104 17/3/17 
f 104/3/104 19/3/19 103/3/103 
f 135/3/135 140/3/140 136/3/136 
f 133/3/133 140/3/140 138/3/138 
f 140/3/140 133/3/133 136/3/136 
f 138/3/138 59/3/59 73/3/73 
f 138/3/138 73/3/73 133/3/133 
f 139/3/139 135/3/135 118/3/118 
f 118/3/118 135/3/135 117/3/117 
f 119/3/119 139/3/139 118/3/118 
f 139/3/139 119/3/119 143/3/143 
f 36/3/36 78/3/78 119/3/119 
f 119/3/119 78/3/78 143/3/143 
f 149/4/149 146/4/146 150/4/150 
f 146/4/146 149/4/149 151/4/151 
f 71/4/71 151/4/151 82/4/82 
f 151/4/151 71/4/71 146/4/146 
f 145/3/145 150/3/150 146/3/146 
f 150/3/150 145/3/145 152/3/152 
f 152/3/152 84/3/84 150/3/150 
f 84/3/84 152/3/152 85/3/85 
f 85/3/85 147/3/147 86/3/86 
f 147/3/147 85/3/85 152/3/152 
f 78/3/78 147/3/147 143/3/143 
f 147/3/147 78/3/78 86/3/86 
f 75/3/75 117/3/117 135/3/135 
f 117/3/117 75/3/75 33/3/33 
f 150/4/150 87/4/87 149/4/149 
f 87/4/87 150/4/150 84/4/84 
f 153/5/153 154/5/154 155/5/155 
f 152/3/152 145/3/145 148/3/148 
f 144/3/144 145/3/145 142/3/142 
f 145/3/145 144/3/144 148/3/148 
f 66/3/66 145/3/145 70/3/70 
f 145/3/145 66/3/66 142/3/142 
f 153/5/153 152/5/152 148/5/148 
f 148/5/148 154/5/154 153/5/153 
f 152/5/152 153/5/153 147/5/147 
f 155/5/155 148/5/148 147/5/147 
f 148/5/148 155/5/155 154/5/154 
f 147/5/147 153/5/153 155/5/155 
f 79/6/79 156/6/156 87/6/87 
f 149/6/149 87/6/87 156/6/156 
f 156/4/156 79/4/79 80/4/80 
f 156/4/156 80/4/80 157/4/157 
f 149/4/149 156/4/156 151/4/151 
f 156/4/156 157/4/157 151/4/151 
f 80/4/80 82/4/82 157/4/157 
f 157/4/157 82/4/82 151/4/151 
# 0 polygons - 310 triangles

